<?xml version="1.0" encoding="UTF-8" standalone="no"?><svg xmlns="http://www.w3.org/2000/svg" xmlns:xlink="http://www.w3.org/1999/xlink" contentScriptType="application/ecmascript" contentStyleType="text/css" height="818px" preserveAspectRatio="none" style="width:1333px;height:818px;background:#FFFFFF;" version="1.1" viewBox="0 0 1333 818" width="1333px" zoomAndPan="magnify"><defs><filter height="300%" id="fk7ma43lwimh6" width="300%" x="-1" y="-1"><feGaussianBlur result="blurOut" stdDeviation="2.0"/><feColorMatrix in="blurOut" result="blurOut2" type="matrix" values="0 0 0 0 0 0 0 0 0 0 0 0 0 0 0 0 0 0 .4 0"/><feOffset dx="4.0" dy="4.0" in="blurOut2" result="blurOut3"/><feBlend in="SourceGraphic" in2="blurOut3" mode="normal"/></filter></defs><g><!--MD5=[a47ca64b571b6a8b9dc3b36f2ff53aa3]
cluster academic_me::models::exam.dart--><polygon fill="#FFFFFF" filter="url(#fk7ma43lwimh6)" points="144,475.5,423,475.5,430,497.7969,476,497.7969,476,804.5,144,804.5,144,475.5" style="stroke:#000000;stroke-width:1.5;"/><line style="stroke:#000000;stroke-width:1.5;" x1="144" x2="430" y1="497.7969" y2="497.7969"/><text fill="#000000" font-family="sans-serif" font-size="14" font-weight="bold" lengthAdjust="spacing" textLength="273" x="148" y="490.4951">academic_me::models::exam.dart</text><!--MD5=[1869ef45efacac4314d14c07d241c36f]
cluster academic_me::models::exams.dart--><polygon fill="#FFFFFF" filter="url(#fk7ma43lwimh6)" points="16,250,304,250,311,272.2969,314,272.2969,314,375,16,375,16,250" style="stroke:#000000;stroke-width:1.5;"/><line style="stroke:#000000;stroke-width:1.5;" x1="16" x2="311" y1="272.2969" y2="272.2969"/><text fill="#000000" font-family="sans-serif" font-size="14" font-weight="bold" lengthAdjust="spacing" textLength="282" x="20" y="264.9951">academic_me::models::exams.dart</text><!--MD5=[d28259c5e901d840aee1611a179bbd34]
cluster academic_me::models::mark.dart--><polygon fill="#FFFFFF" filter="url(#fk7ma43lwimh6)" points="338,180,615,180,622,202.2969,625,202.2969,625,445,338,445,338,180" style="stroke:#000000;stroke-width:1.5;"/><line style="stroke:#000000;stroke-width:1.5;" x1="338" x2="622" y1="202.2969" y2="202.2969"/><text fill="#000000" font-family="sans-serif" font-size="14" font-weight="bold" lengthAdjust="spacing" textLength="271" x="342" y="194.9951">academic_me::models::mark.dart</text><!--MD5=[dd6b04ea0516001b7b8f01bb7bbcd968]
cluster academic_me::models::student.dart--><polygon fill="#FFFFFF" filter="url(#fk7ma43lwimh6)" points="556,469,856,469,863,491.2969,888,491.2969,888,811,556,811,556,469" style="stroke:#000000;stroke-width:1.5;"/><line style="stroke:#000000;stroke-width:1.5;" x1="556" x2="863" y1="491.2969" y2="491.2969"/><text fill="#000000" font-family="sans-serif" font-size="14" font-weight="bold" lengthAdjust="spacing" textLength="294" x="560" y="483.9951">academic_me::models::student.dart</text><!--MD5=[089b02ce2fc3baa34d59aa3db383aca7]
cluster academic_me::models::marks.dart--><polygon fill="#FFFFFF" filter="url(#fk7ma43lwimh6)" points="319,6,605,6,612,28.2969,645,28.2969,645,156,319,156,319,6" style="stroke:#000000;stroke-width:1.5;"/><line style="stroke:#000000;stroke-width:1.5;" x1="319" x2="612" y1="28.2969" y2="28.2969"/><text fill="#000000" font-family="sans-serif" font-size="14" font-weight="bold" lengthAdjust="spacing" textLength="280" x="323" y="20.9951">academic_me::models::marks.dart</text><!--MD5=[1f0dd15af34e011c8b5eb0da40bafb71]
cluster academic_me::models::students.dart--><polygon fill="#FFFFFF" filter="url(#fk7ma43lwimh6)" points="649,250,958,250,965,272.2969,968,272.2969,968,375,649,375,649,250" style="stroke:#000000;stroke-width:1.5;"/><line style="stroke:#000000;stroke-width:1.5;" x1="649" x2="965" y1="272.2969" y2="272.2969"/><text fill="#000000" font-family="sans-serif" font-size="14" font-weight="bold" lengthAdjust="spacing" textLength="303" x="653" y="264.9951">academic_me::models::students.dart</text><!--MD5=[80d03e40f18d0f1e7a5ce63fd84c7bd3]
cluster academic_me::models::subject.dart--><polygon fill="#FFFFFF" filter="url(#fk7ma43lwimh6)" points="992,199,1288,199,1295,221.2969,1298,221.2969,1298,426,992,426,992,199" style="stroke:#000000;stroke-width:1.5;"/><line style="stroke:#000000;stroke-width:1.5;" x1="992" x2="1295" y1="221.2969" y2="221.2969"/><text fill="#000000" font-family="sans-serif" font-size="14" font-weight="bold" lengthAdjust="spacing" textLength="290" x="996" y="213.9951">academic_me::models::subject.dart</text><!--MD5=[ca8777b11c3785e16d097d585b5a25fd]
cluster academic_me::models::subjects.dart--><polygon fill="#FFFFFF" filter="url(#fk7ma43lwimh6)" points="1001,18.5,1306,18.5,1313,40.7969,1316,40.7969,1316,143.5,1001,143.5,1001,18.5" style="stroke:#000000;stroke-width:1.5;"/><line style="stroke:#000000;stroke-width:1.5;" x1="1001" x2="1313" y1="40.7969" y2="40.7969"/><text fill="#000000" font-family="sans-serif" font-size="14" font-weight="bold" lengthAdjust="spacing" textLength="299" x="1005" y="33.4951">academic_me::models::subjects.dart</text><!--MD5=[cf26cde71afcd61ab6180bc872ee8134]
class academic_me::models::exam.dart::Exam--><rect codeLine="3" fill="#FEFECE" filter="url(#fk7ma43lwimh6)" height="278.4844" id="academic_me::models::exam.dart::Exam" style="stroke:#A80036;stroke-width:1.5;" width="300" x="160" y="510.5"/><ellipse cx="289.75" cy="526.5" fill="#ADD1B2" rx="11" ry="11" style="stroke:#A80036;stroke-width:1.0;"/><path d="M292.0938,522.1719 C291.1563,521.7344 290.5625,521.5938 289.6875,521.5938 C287.0625,521.5938 285.0625,523.6719 285.0625,526.3906 L285.0625,527.5156 C285.0625,530.0938 287.1719,531.9844 290.0625,531.9844 C291.2813,531.9844 292.4375,531.6875 293.1875,531.1406 C293.7656,530.7344 294.0938,530.2813 294.0938,529.8906 C294.0938,529.4375 293.7031,529.0469 293.2344,529.0469 C293.0156,529.0469 292.8125,529.125 292.625,529.3125 C292.1719,529.7969 292.1719,529.7969 291.9844,529.8906 C291.5625,530.1563 290.875,530.2813 290.1094,530.2813 C288.0625,530.2813 286.7656,529.1875 286.7656,527.4844 L286.7656,526.3906 C286.7656,524.6094 288.0156,523.2969 289.75,523.2969 C290.3281,523.2969 290.9375,523.4531 291.4063,523.7031 C291.8906,523.9844 292.0625,524.2031 292.1563,524.6094 C292.2188,525.0156 292.25,525.1406 292.3906,525.2656 C292.5313,525.4063 292.7656,525.5156 292.9844,525.5156 C293.25,525.5156 293.5156,525.375 293.6875,525.1563 C293.7969,525 293.8281,524.8125 293.8281,524.3906 L293.8281,522.9688 C293.8281,522.5313 293.8125,522.4063 293.7188,522.25 C293.5625,521.9844 293.2813,521.8438 292.9844,521.8438 C292.6875,521.8438 292.4844,521.9375 292.2656,522.25 L292.0938,522.1719 Z " fill="#000000"/><text fill="#000000" font-family="sans-serif" font-size="12" lengthAdjust="spacing" textLength="32" x="310.25" y="530.6543">Exam</text><line style="stroke:#A80036;stroke-width:1.5;" x1="161" x2="459" y1="542.5" y2="542.5"/><ellipse cx="171" cy="553.5" rx="3" ry="3" style="stroke:#038048;stroke-width:1.0;fill:none;"/><text fill="#000000" font-family="sans-serif" font-size="11" lengthAdjust="spacing" textLength="34" x="180" y="556.7104">int* id</text><ellipse cx="171" cy="566.3047" rx="3" ry="3" style="stroke:#038048;stroke-width:1.0;fill:none;"/><text fill="#000000" font-family="sans-serif" font-size="11" lengthAdjust="spacing" textLength="76" x="180" y="569.5151">String* name</text><ellipse cx="171" cy="579.1094" rx="3" ry="3" style="stroke:#038048;stroke-width:1.0;fill:none;"/><text fill="#000000" font-family="sans-serif" font-size="11" lengthAdjust="spacing" textLength="93" x="180" y="582.3198">DateTime* date</text><ellipse cx="171" cy="591.9141" rx="3" ry="3" style="stroke:#038048;stroke-width:1.0;fill:none;"/><text fill="#000000" font-family="sans-serif" font-size="11" lengthAdjust="spacing" textLength="75" x="180" y="595.1245">int* subjectId</text><rect fill="none" height="6" style="stroke:#C82930;stroke-width:1.0;" width="6" x="168" y="601.7188"/><text fill="#000000" font-family="sans-serif" font-size="11" lengthAdjust="spacing" textLength="144" x="180" y="607.9292">Iterable&lt;Mark*&gt;* _marks</text><rect fill="none" height="6" style="stroke:#C82930;stroke-width:1.0;" width="6" x="168" y="614.5234"/><text fill="#000000" font-family="sans-serif" font-size="11" lengthAdjust="spacing" text-decoration="underline" textLength="102" x="180" y="620.7339">String* _tablePath</text><ellipse cx="171" cy="630.3281" rx="3" ry="3" style="stroke:#038048;stroke-width:1.0;fill:none;"/><text fill="#000000" font-family="sans-serif" font-size="11" lengthAdjust="spacing" text-decoration="underline" textLength="129" x="180" y="633.5386">int* idProfesorSiempre</text><ellipse cx="171" cy="643.1328" rx="3" ry="3" style="stroke:#038048;stroke-width:1.0;fill:none;"/><text fill="#000000" font-family="sans-serif" font-size="11" lengthAdjust="spacing" textLength="198" x="180" y="646.3433">Future&lt;Iterable&lt;Mark*&gt;*&gt;* marks</text><ellipse cx="171" cy="655.9375" rx="3" ry="3" style="stroke:#038048;stroke-width:1.0;fill:none;"/><text fill="#000000" font-family="sans-serif" font-size="11" lengthAdjust="spacing" textLength="142" x="180" y="659.1479">Future&lt;double*&gt;* mean</text><ellipse cx="171" cy="668.7422" rx="3" ry="3" style="stroke:#038048;stroke-width:1.0;fill:none;"/><text fill="#000000" font-family="sans-serif" font-size="11" lengthAdjust="spacing" textLength="162" x="180" y="671.9526">Future&lt;double*&gt;* minimum</text><ellipse cx="171" cy="681.5469" rx="3" ry="3" style="stroke:#038048;stroke-width:1.0;fill:none;"/><text fill="#000000" font-family="sans-serif" font-size="11" lengthAdjust="spacing" textLength="166" x="180" y="684.7573">Future&lt;double*&gt;* maximum</text><line style="stroke:#A80036;stroke-width:1.5;" x1="161" x2="459" y1="691.3516" y2="691.3516"/><rect fill="#F24D5C" height="6" style="stroke:#C82930;stroke-width:1.0;" width="6" x="168" y="699.3516"/><text fill="#000000" font-family="sans-serif" font-size="11" lengthAdjust="spacing" textLength="274" x="180" y="705.562">Future&lt;Iterable&lt;Mark*&gt;*&gt;* _getMarksFromAPI()</text><ellipse cx="171" cy="715.1563" fill="#84BE84" rx="3" ry="3" style="stroke:#038048;stroke-width:1.0;"/><text fill="#000000" font-family="sans-serif" font-size="11" lengthAdjust="spacing" textLength="108" x="180" y="718.3667">void updateMarks()</text><ellipse cx="171" cy="727.9609" fill="#84BE84" rx="3" ry="3" style="stroke:#038048;stroke-width:1.0;"/><text fill="#000000" font-family="sans-serif" font-size="11" lengthAdjust="spacing" textLength="187" x="180" y="731.1714">Map&lt;String*, dynamic&gt;* toJson()</text><ellipse cx="171" cy="740.7656" fill="#84BE84" rx="3" ry="3" style="stroke:#038048;stroke-width:1.0;"/><text fill="#000000" font-family="sans-serif" font-size="11" lengthAdjust="spacing" text-decoration="underline" textLength="161" x="180" y="743.9761">Future&lt;Exam*&gt;* getExam()</text><ellipse cx="171" cy="753.5703" fill="#84BE84" rx="3" ry="3" style="stroke:#038048;stroke-width:1.0;"/><text fill="#000000" font-family="sans-serif" font-size="11" lengthAdjust="spacing" text-decoration="underline" textLength="179" x="180" y="756.7808">Future&lt;Exam*&gt;* createExam()</text><ellipse cx="171" cy="766.375" fill="#84BE84" rx="3" ry="3" style="stroke:#038048;stroke-width:1.0;"/><text fill="#000000" font-family="sans-serif" font-size="11" lengthAdjust="spacing" text-decoration="underline" textLength="166" x="180" y="769.5854">Future&lt;void&gt;* deleteExam()</text><ellipse cx="171" cy="779.1797" fill="#84BE84" rx="3" ry="3" style="stroke:#038048;stroke-width:1.0;"/><text fill="#000000" font-family="sans-serif" font-size="11" lengthAdjust="spacing" text-decoration="underline" textLength="182" x="180" y="782.3901">Future&lt;Exam*&gt;* updateExam()</text><!--MD5=[0a06aecf42ef1c973cb091b61223d881]
class academic_me::models::exams.dart::Exams--><rect codeLine="24" fill="#FEFECE" filter="url(#fk7ma43lwimh6)" height="73.6094" id="academic_me::models::exams.dart::Exams" style="stroke:#A80036;stroke-width:1.5;" width="199" x="98.5" y="285"/><ellipse cx="174.25" cy="301" fill="#ADD1B2" rx="11" ry="11" style="stroke:#A80036;stroke-width:1.0;"/><path d="M176.5938,296.6719 C175.6563,296.2344 175.0625,296.0938 174.1875,296.0938 C171.5625,296.0938 169.5625,298.1719 169.5625,300.8906 L169.5625,302.0156 C169.5625,304.5938 171.6719,306.4844 174.5625,306.4844 C175.7813,306.4844 176.9375,306.1875 177.6875,305.6406 C178.2656,305.2344 178.5938,304.7813 178.5938,304.3906 C178.5938,303.9375 178.2031,303.5469 177.7344,303.5469 C177.5156,303.5469 177.3125,303.625 177.125,303.8125 C176.6719,304.2969 176.6719,304.2969 176.4844,304.3906 C176.0625,304.6563 175.375,304.7813 174.6094,304.7813 C172.5625,304.7813 171.2656,303.6875 171.2656,301.9844 L171.2656,300.8906 C171.2656,299.1094 172.5156,297.7969 174.25,297.7969 C174.8281,297.7969 175.4375,297.9531 175.9063,298.2031 C176.3906,298.4844 176.5625,298.7031 176.6563,299.1094 C176.7188,299.5156 176.75,299.6406 176.8906,299.7656 C177.0313,299.9063 177.2656,300.0156 177.4844,300.0156 C177.75,300.0156 178.0156,299.875 178.1875,299.6563 C178.2969,299.5 178.3281,299.3125 178.3281,298.8906 L178.3281,297.4688 C178.3281,297.0313 178.3125,296.9063 178.2188,296.75 C178.0625,296.4844 177.7813,296.3438 177.4844,296.3438 C177.1875,296.3438 176.9844,296.4375 176.7656,296.75 L176.5938,296.6719 Z " fill="#000000"/><text fill="#000000" font-family="sans-serif" font-size="12" lengthAdjust="spacing" textLength="39" x="194.75" y="305.1543">Exams</text><line style="stroke:#A80036;stroke-width:1.5;" x1="99.5" x2="296.5" y1="317" y2="317"/><ellipse cx="109.5" cy="328" rx="3" ry="3" style="stroke:#038048;stroke-width:1.0;fill:none;"/><text fill="#000000" font-family="sans-serif" font-size="11" lengthAdjust="spacing" textLength="124" x="118.5" y="331.2104">List&lt;Exam*&gt;* exams</text><line style="stroke:#A80036;stroke-width:1.5;" x1="99.5" x2="296.5" y1="337.8047" y2="337.8047"/><ellipse cx="109.5" cy="348.8047" fill="#84BE84" rx="3" ry="3" style="stroke:#038048;stroke-width:1.0;"/><text fill="#000000" font-family="sans-serif" font-size="11" lengthAdjust="spacing" text-decoration="underline" textLength="173" x="118.5" y="352.0151">Future&lt;Exams*&gt;* getExams()</text><!--MD5=[a27c213439da0c41ee0f0fa485996f84]
class academic_me::models::mark.dart::Mark--><rect codeLine="31" fill="#FEFECE" filter="url(#fk7ma43lwimh6)" height="214.4609" id="academic_me::models::mark.dart::Mark" style="stroke:#A80036;stroke-width:1.5;" width="196" x="384" y="215"/><ellipse cx="463.25" cy="231" fill="#ADD1B2" rx="11" ry="11" style="stroke:#A80036;stroke-width:1.0;"/><path d="M465.5938,226.6719 C464.6563,226.2344 464.0625,226.0938 463.1875,226.0938 C460.5625,226.0938 458.5625,228.1719 458.5625,230.8906 L458.5625,232.0156 C458.5625,234.5938 460.6719,236.4844 463.5625,236.4844 C464.7813,236.4844 465.9375,236.1875 466.6875,235.6406 C467.2656,235.2344 467.5938,234.7813 467.5938,234.3906 C467.5938,233.9375 467.2031,233.5469 466.7344,233.5469 C466.5156,233.5469 466.3125,233.625 466.125,233.8125 C465.6719,234.2969 465.6719,234.2969 465.4844,234.3906 C465.0625,234.6563 464.375,234.7813 463.6094,234.7813 C461.5625,234.7813 460.2656,233.6875 460.2656,231.9844 L460.2656,230.8906 C460.2656,229.1094 461.5156,227.7969 463.25,227.7969 C463.8281,227.7969 464.4375,227.9531 464.9063,228.2031 C465.3906,228.4844 465.5625,228.7031 465.6563,229.1094 C465.7188,229.5156 465.75,229.6406 465.8906,229.7656 C466.0313,229.9063 466.2656,230.0156 466.4844,230.0156 C466.75,230.0156 467.0156,229.875 467.1875,229.6563 C467.2969,229.5 467.3281,229.3125 467.3281,228.8906 L467.3281,227.4688 C467.3281,227.0313 467.3125,226.9063 467.2188,226.75 C467.0625,226.4844 466.7813,226.3438 466.4844,226.3438 C466.1875,226.3438 465.9844,226.4375 465.7656,226.75 L465.5938,226.6719 Z " fill="#000000"/><text fill="#000000" font-family="sans-serif" font-size="12" lengthAdjust="spacing" textLength="29" x="483.75" y="235.1543">Mark</text><line style="stroke:#A80036;stroke-width:1.5;" x1="385" x2="579" y1="247" y2="247"/><ellipse cx="395" cy="258" rx="3" ry="3" style="stroke:#038048;stroke-width:1.0;fill:none;"/><text fill="#000000" font-family="sans-serif" font-size="11" lengthAdjust="spacing" textLength="34" x="404" y="261.2104">int* id</text><ellipse cx="395" cy="270.8047" rx="3" ry="3" style="stroke:#038048;stroke-width:1.0;fill:none;"/><text fill="#000000" font-family="sans-serif" font-size="11" lengthAdjust="spacing" textLength="77" x="404" y="274.0151">int* studentId</text><ellipse cx="395" cy="283.6094" rx="3" ry="3" style="stroke:#038048;stroke-width:1.0;fill:none;"/><text fill="#000000" font-family="sans-serif" font-size="11" lengthAdjust="spacing" textLength="67" x="404" y="286.8198">int* examId</text><ellipse cx="395" cy="296.4141" rx="3" ry="3" style="stroke:#038048;stroke-width:1.0;fill:none;"/><text fill="#000000" font-family="sans-serif" font-size="11" lengthAdjust="spacing" textLength="82" x="404" y="299.6245">double* grade</text><ellipse cx="395" cy="309.2188" rx="3" ry="3" style="stroke:#038048;stroke-width:1.0;fill:none;"/><text fill="#000000" font-family="sans-serif" font-size="11" lengthAdjust="spacing" textLength="88" x="404" y="312.4292">String* urlPhoto</text><ellipse cx="395" cy="322.0234" rx="3" ry="3" style="stroke:#038048;stroke-width:1.0;fill:none;"/><text fill="#000000" font-family="sans-serif" font-size="11" lengthAdjust="spacing" textLength="75" x="404" y="325.2339">Exam* exam</text><ellipse cx="395" cy="334.8281" rx="3" ry="3" style="stroke:#038048;stroke-width:1.0;fill:none;"/><text fill="#000000" font-family="sans-serif" font-size="11" lengthAdjust="spacing" textLength="98" x="404" y="338.0386">Student* student</text><rect fill="none" height="6" style="stroke:#C82930;stroke-width:1.0;" width="6" x="392" y="344.6328"/><text fill="#000000" font-family="sans-serif" font-size="11" lengthAdjust="spacing" text-decoration="underline" textLength="102" x="404" y="350.8433">String* _tablePath</text><ellipse cx="395" cy="360.4375" rx="3" ry="3" style="stroke:#038048;stroke-width:1.0;fill:none;"/><text fill="#000000" font-family="sans-serif" font-size="11" lengthAdjust="spacing" text-decoration="underline" textLength="129" x="404" y="363.6479">int* idProfesorSiempre</text><line style="stroke:#A80036;stroke-width:1.5;" x1="385" x2="579" y1="370.2422" y2="370.2422"/><ellipse cx="395" cy="381.2422" fill="#84BE84" rx="3" ry="3" style="stroke:#038048;stroke-width:1.0;"/><text fill="#000000" font-family="sans-serif" font-size="11" lengthAdjust="spacing" text-decoration="underline" textLength="149" x="404" y="384.4526">Future&lt;Mark*&gt;* getMark()</text><ellipse cx="395" cy="394.0469" fill="#84BE84" rx="3" ry="3" style="stroke:#038048;stroke-width:1.0;"/><text fill="#000000" font-family="sans-serif" font-size="11" lengthAdjust="spacing" text-decoration="underline" textLength="167" x="404" y="397.2573">Future&lt;Mark*&gt;* createMark()</text><ellipse cx="395" cy="406.8516" fill="#84BE84" rx="3" ry="3" style="stroke:#038048;stroke-width:1.0;"/><text fill="#000000" font-family="sans-serif" font-size="11" lengthAdjust="spacing" text-decoration="underline" textLength="160" x="404" y="410.062">Future&lt;void&gt;* deleteMark()</text><ellipse cx="395" cy="419.6563" fill="#84BE84" rx="3" ry="3" style="stroke:#038048;stroke-width:1.0;"/><text fill="#000000" font-family="sans-serif" font-size="11" lengthAdjust="spacing" text-decoration="underline" textLength="170" x="404" y="422.8667">Future&lt;Mark*&gt;* updateMark()</text><!--MD5=[efc396c742c2edb4a16551f1711ddf1e]
class academic_me::models::student.dart::Student--><rect codeLine="59" fill="#FEFECE" filter="url(#fk7ma43lwimh6)" height="291.2891" id="academic_me::models::student.dart::Student" style="stroke:#A80036;stroke-width:1.5;" width="300" x="572" y="504"/><ellipse cx="694.75" cy="520" fill="#ADD1B2" rx="11" ry="11" style="stroke:#A80036;stroke-width:1.0;"/><path d="M697.0938,515.6719 C696.1563,515.2344 695.5625,515.0938 694.6875,515.0938 C692.0625,515.0938 690.0625,517.1719 690.0625,519.8906 L690.0625,521.0156 C690.0625,523.5938 692.1719,525.4844 695.0625,525.4844 C696.2813,525.4844 697.4375,525.1875 698.1875,524.6406 C698.7656,524.2344 699.0938,523.7813 699.0938,523.3906 C699.0938,522.9375 698.7031,522.5469 698.2344,522.5469 C698.0156,522.5469 697.8125,522.625 697.625,522.8125 C697.1719,523.2969 697.1719,523.2969 696.9844,523.3906 C696.5625,523.6563 695.875,523.7813 695.1094,523.7813 C693.0625,523.7813 691.7656,522.6875 691.7656,520.9844 L691.7656,519.8906 C691.7656,518.1094 693.0156,516.7969 694.75,516.7969 C695.3281,516.7969 695.9375,516.9531 696.4063,517.2031 C696.8906,517.4844 697.0625,517.7031 697.1563,518.1094 C697.2188,518.5156 697.25,518.6406 697.3906,518.7656 C697.5313,518.9063 697.7656,519.0156 697.9844,519.0156 C698.25,519.0156 698.5156,518.875 698.6875,518.6563 C698.7969,518.5 698.8281,518.3125 698.8281,517.8906 L698.8281,516.4688 C698.8281,516.0313 698.8125,515.9063 698.7188,515.75 C698.5625,515.4844 698.2813,515.3438 697.9844,515.3438 C697.6875,515.3438 697.4844,515.4375 697.2656,515.75 L697.0938,515.6719 Z " fill="#000000"/><text fill="#000000" font-family="sans-serif" font-size="12" lengthAdjust="spacing" textLength="46" x="715.25" y="524.1543">Student</text><line style="stroke:#A80036;stroke-width:1.5;" x1="573" x2="871" y1="536" y2="536"/><ellipse cx="583" cy="547" rx="3" ry="3" style="stroke:#038048;stroke-width:1.0;fill:none;"/><text fill="#000000" font-family="sans-serif" font-size="11" lengthAdjust="spacing" textLength="34" x="592" y="550.2104">int* id</text><ellipse cx="583" cy="559.8047" rx="3" ry="3" style="stroke:#038048;stroke-width:1.0;fill:none;"/><text fill="#000000" font-family="sans-serif" font-size="11" lengthAdjust="spacing" textLength="76" x="592" y="563.0151">String* name</text><ellipse cx="583" cy="572.6094" rx="3" ry="3" style="stroke:#038048;stroke-width:1.0;fill:none;"/><text fill="#000000" font-family="sans-serif" font-size="11" lengthAdjust="spacing" textLength="93" x="592" y="575.8198">String* surname</text><ellipse cx="583" cy="585.4141" rx="3" ry="3" style="stroke:#038048;stroke-width:1.0;fill:none;"/><text fill="#000000" font-family="sans-serif" font-size="11" lengthAdjust="spacing" textLength="79" x="592" y="588.6245">String* phone</text><ellipse cx="583" cy="598.2188" rx="3" ry="3" style="stroke:#038048;stroke-width:1.0;fill:none;"/><text fill="#000000" font-family="sans-serif" font-size="11" lengthAdjust="spacing" textLength="75" x="592" y="601.4292">String* email</text><ellipse cx="583" cy="611.0234" rx="3" ry="3" style="stroke:#038048;stroke-width:1.0;fill:none;"/><text fill="#000000" font-family="sans-serif" font-size="11" lengthAdjust="spacing" textLength="88" x="592" y="614.2339">String* address</text><rect fill="none" height="6" style="stroke:#C82930;stroke-width:1.0;" width="6" x="580" y="620.8281"/><text fill="#000000" font-family="sans-serif" font-size="11" lengthAdjust="spacing" textLength="144" x="592" y="627.0386">Iterable&lt;Mark*&gt;* _marks</text><rect fill="none" height="6" style="stroke:#C82930;stroke-width:1.0;" width="6" x="580" y="633.6328"/><text fill="#000000" font-family="sans-serif" font-size="11" lengthAdjust="spacing" text-decoration="underline" textLength="102" x="592" y="639.8433">String* _tablePath</text><ellipse cx="583" cy="649.4375" rx="3" ry="3" style="stroke:#038048;stroke-width:1.0;fill:none;"/><text fill="#000000" font-family="sans-serif" font-size="11" lengthAdjust="spacing" textLength="198" x="592" y="652.6479">Future&lt;Iterable&lt;Mark*&gt;*&gt;* marks</text><ellipse cx="583" cy="662.2422" rx="3" ry="3" style="stroke:#038048;stroke-width:1.0;fill:none;"/><text fill="#000000" font-family="sans-serif" font-size="11" lengthAdjust="spacing" textLength="131" x="592" y="665.4526">String* completeName</text><ellipse cx="583" cy="675.0469" rx="3" ry="3" style="stroke:#038048;stroke-width:1.0;fill:none;"/><text fill="#000000" font-family="sans-serif" font-size="11" lengthAdjust="spacing" textLength="142" x="592" y="678.2573">Future&lt;double*&gt;* mean</text><ellipse cx="583" cy="687.8516" rx="3" ry="3" style="stroke:#038048;stroke-width:1.0;fill:none;"/><text fill="#000000" font-family="sans-serif" font-size="11" lengthAdjust="spacing" textLength="162" x="592" y="691.062">Future&lt;double*&gt;* minimum</text><ellipse cx="583" cy="700.6563" rx="3" ry="3" style="stroke:#038048;stroke-width:1.0;fill:none;"/><text fill="#000000" font-family="sans-serif" font-size="11" lengthAdjust="spacing" textLength="166" x="592" y="703.8667">Future&lt;double*&gt;* maximum</text><line style="stroke:#A80036;stroke-width:1.5;" x1="573" x2="871" y1="710.4609" y2="710.4609"/><rect fill="#F24D5C" height="6" style="stroke:#C82930;stroke-width:1.0;" width="6" x="580" y="718.4609"/><text fill="#000000" font-family="sans-serif" font-size="11" lengthAdjust="spacing" textLength="274" x="592" y="724.6714">Future&lt;Iterable&lt;Mark*&gt;*&gt;* _getMarksFromAPI()</text><ellipse cx="583" cy="734.2656" fill="#84BE84" rx="3" ry="3" style="stroke:#038048;stroke-width:1.0;"/><text fill="#000000" font-family="sans-serif" font-size="11" lengthAdjust="spacing" textLength="108" x="592" y="737.4761">void updateMarks()</text><ellipse cx="583" cy="747.0703" fill="#84BE84" rx="3" ry="3" style="stroke:#038048;stroke-width:1.0;"/><text fill="#000000" font-family="sans-serif" font-size="11" lengthAdjust="spacing" text-decoration="underline" textLength="187" x="592" y="750.2808">Future&lt;Student*&gt;* getStudent()</text><ellipse cx="583" cy="759.875" fill="#84BE84" rx="3" ry="3" style="stroke:#038048;stroke-width:1.0;"/><text fill="#000000" font-family="sans-serif" font-size="11" lengthAdjust="spacing" text-decoration="underline" textLength="205" x="592" y="763.0854">Future&lt;Student*&gt;* createStudent()</text><ellipse cx="583" cy="772.6797" fill="#84BE84" rx="3" ry="3" style="stroke:#038048;stroke-width:1.0;"/><text fill="#000000" font-family="sans-serif" font-size="11" lengthAdjust="spacing" text-decoration="underline" textLength="179" x="592" y="775.8901">Future&lt;void&gt;* deleteStudent()</text><ellipse cx="583" cy="785.4844" fill="#84BE84" rx="3" ry="3" style="stroke:#038048;stroke-width:1.0;"/><text fill="#000000" font-family="sans-serif" font-size="11" lengthAdjust="spacing" text-decoration="underline" textLength="208" x="592" y="788.6948">Future&lt;Student*&gt;* updateStudent()</text><!--MD5=[68d71e4645e191d007bdbf6b015d3b93]
class academic_me::models::marks.dart::Marks--><rect codeLine="50" fill="#FEFECE" filter="url(#fk7ma43lwimh6)" height="99.2188" id="academic_me::models::marks.dart::Marks" style="stroke:#A80036;stroke-width:1.5;" width="294" x="335" y="41"/><ellipse cx="459.75" cy="57" fill="#ADD1B2" rx="11" ry="11" style="stroke:#A80036;stroke-width:1.0;"/><path d="M462.0938,52.6719 C461.1563,52.2344 460.5625,52.0938 459.6875,52.0938 C457.0625,52.0938 455.0625,54.1719 455.0625,56.8906 L455.0625,58.0156 C455.0625,60.5938 457.1719,62.4844 460.0625,62.4844 C461.2813,62.4844 462.4375,62.1875 463.1875,61.6406 C463.7656,61.2344 464.0938,60.7813 464.0938,60.3906 C464.0938,59.9375 463.7031,59.5469 463.2344,59.5469 C463.0156,59.5469 462.8125,59.625 462.625,59.8125 C462.1719,60.2969 462.1719,60.2969 461.9844,60.3906 C461.5625,60.6563 460.875,60.7813 460.1094,60.7813 C458.0625,60.7813 456.7656,59.6875 456.7656,57.9844 L456.7656,56.8906 C456.7656,55.1094 458.0156,53.7969 459.75,53.7969 C460.3281,53.7969 460.9375,53.9531 461.4063,54.2031 C461.8906,54.4844 462.0625,54.7031 462.1563,55.1094 C462.2188,55.5156 462.25,55.6406 462.3906,55.7656 C462.5313,55.9063 462.7656,56.0156 462.9844,56.0156 C463.25,56.0156 463.5156,55.875 463.6875,55.6563 C463.7969,55.5 463.8281,55.3125 463.8281,54.8906 L463.8281,53.4688 C463.8281,53.0313 463.8125,52.9063 463.7188,52.75 C463.5625,52.4844 463.2813,52.3438 462.9844,52.3438 C462.6875,52.3438 462.4844,52.4375 462.2656,52.75 L462.0938,52.6719 Z " fill="#000000"/><text fill="#000000" font-family="sans-serif" font-size="12" lengthAdjust="spacing" textLength="36" x="480.25" y="61.1543">Marks</text><line style="stroke:#A80036;stroke-width:1.5;" x1="336" x2="628" y1="73" y2="73"/><ellipse cx="346" cy="84" rx="3" ry="3" style="stroke:#038048;stroke-width:1.0;fill:none;"/><text fill="#000000" font-family="sans-serif" font-size="11" lengthAdjust="spacing" textLength="113" x="355" y="87.2104">List&lt;Mark*&gt;* marks</text><line style="stroke:#A80036;stroke-width:1.5;" x1="336" x2="628" y1="93.8047" y2="93.8047"/><ellipse cx="346" cy="104.8047" fill="#84BE84" rx="3" ry="3" style="stroke:#038048;stroke-width:1.0;"/><text fill="#000000" font-family="sans-serif" font-size="11" lengthAdjust="spacing" text-decoration="underline" textLength="161" x="355" y="108.0151">Future&lt;Marks*&gt;* getMarks()</text><ellipse cx="346" cy="117.6094" fill="#84BE84" rx="3" ry="3" style="stroke:#038048;stroke-width:1.0;"/><text fill="#000000" font-family="sans-serif" font-size="11" lengthAdjust="spacing" text-decoration="underline" textLength="268" x="355" y="120.8198">Future&lt;Iterable&lt;Mark*&gt;*&gt;* getMarksStudent()</text><ellipse cx="346" cy="130.4141" fill="#84BE84" rx="3" ry="3" style="stroke:#038048;stroke-width:1.0;"/><text fill="#000000" font-family="sans-serif" font-size="11" lengthAdjust="spacing" text-decoration="underline" textLength="255" x="355" y="133.6245">Future&lt;Iterable&lt;Mark*&gt;*&gt;* getMarksExam()</text><!--MD5=[27aa50f7ca066f276e8418ee27381fa0]
class academic_me::models::students.dart::Students--><rect codeLine="81" fill="#FEFECE" filter="url(#fk7ma43lwimh6)" height="73.6094" id="academic_me::models::students.dart::Students" style="stroke:#A80036;stroke-width:1.5;" width="225" x="665.5" y="285"/><ellipse cx="747.25" cy="301" fill="#ADD1B2" rx="11" ry="11" style="stroke:#A80036;stroke-width:1.0;"/><path d="M749.5938,296.6719 C748.6563,296.2344 748.0625,296.0938 747.1875,296.0938 C744.5625,296.0938 742.5625,298.1719 742.5625,300.8906 L742.5625,302.0156 C742.5625,304.5938 744.6719,306.4844 747.5625,306.4844 C748.7813,306.4844 749.9375,306.1875 750.6875,305.6406 C751.2656,305.2344 751.5938,304.7813 751.5938,304.3906 C751.5938,303.9375 751.2031,303.5469 750.7344,303.5469 C750.5156,303.5469 750.3125,303.625 750.125,303.8125 C749.6719,304.2969 749.6719,304.2969 749.4844,304.3906 C749.0625,304.6563 748.375,304.7813 747.6094,304.7813 C745.5625,304.7813 744.2656,303.6875 744.2656,301.9844 L744.2656,300.8906 C744.2656,299.1094 745.5156,297.7969 747.25,297.7969 C747.8281,297.7969 748.4375,297.9531 748.9063,298.2031 C749.3906,298.4844 749.5625,298.7031 749.6563,299.1094 C749.7188,299.5156 749.75,299.6406 749.8906,299.7656 C750.0313,299.9063 750.2656,300.0156 750.4844,300.0156 C750.75,300.0156 751.0156,299.875 751.1875,299.6563 C751.2969,299.5 751.3281,299.3125 751.3281,298.8906 L751.3281,297.4688 C751.3281,297.0313 751.3125,296.9063 751.2188,296.75 C751.0625,296.4844 750.7813,296.3438 750.4844,296.3438 C750.1875,296.3438 749.9844,296.4375 749.7656,296.75 L749.5938,296.6719 Z " fill="#000000"/><text fill="#000000" font-family="sans-serif" font-size="12" lengthAdjust="spacing" textLength="53" x="767.75" y="305.1543">Students</text><line style="stroke:#A80036;stroke-width:1.5;" x1="666.5" x2="889.5" y1="317" y2="317"/><ellipse cx="676.5" cy="328" rx="3" ry="3" style="stroke:#038048;stroke-width:1.0;fill:none;"/><text fill="#000000" font-family="sans-serif" font-size="11" lengthAdjust="spacing" textLength="147" x="685.5" y="331.2104">List&lt;Student*&gt;* students</text><line style="stroke:#A80036;stroke-width:1.5;" x1="666.5" x2="889.5" y1="337.8047" y2="337.8047"/><ellipse cx="676.5" cy="348.8047" fill="#84BE84" rx="3" ry="3" style="stroke:#038048;stroke-width:1.0;"/><text fill="#000000" font-family="sans-serif" font-size="11" lengthAdjust="spacing" text-decoration="underline" textLength="199" x="685.5" y="352.0151">Future&lt;Students*&gt;* getStudents()</text><!--MD5=[0de5d1d9962a2c85b5fd9229c626f7fc]
class academic_me::models::subject.dart::Subject--><rect codeLine="88" fill="#FEFECE" filter="url(#fk7ma43lwimh6)" height="176.0469" id="academic_me::models::subject.dart::Subject" style="stroke:#A80036;stroke-width:1.5;" width="230" x="1030" y="234"/><ellipse cx="1118.25" cy="250" fill="#ADD1B2" rx="11" ry="11" style="stroke:#A80036;stroke-width:1.0;"/><path d="M1120.5938,245.6719 C1119.6563,245.2344 1119.0625,245.0938 1118.1875,245.0938 C1115.5625,245.0938 1113.5625,247.1719 1113.5625,249.8906 L1113.5625,251.0156 C1113.5625,253.5938 1115.6719,255.4844 1118.5625,255.4844 C1119.7813,255.4844 1120.9375,255.1875 1121.6875,254.6406 C1122.2656,254.2344 1122.5938,253.7813 1122.5938,253.3906 C1122.5938,252.9375 1122.2031,252.5469 1121.7344,252.5469 C1121.5156,252.5469 1121.3125,252.625 1121.125,252.8125 C1120.6719,253.2969 1120.6719,253.2969 1120.4844,253.3906 C1120.0625,253.6563 1119.375,253.7813 1118.6094,253.7813 C1116.5625,253.7813 1115.2656,252.6875 1115.2656,250.9844 L1115.2656,249.8906 C1115.2656,248.1094 1116.5156,246.7969 1118.25,246.7969 C1118.8281,246.7969 1119.4375,246.9531 1119.9063,247.2031 C1120.3906,247.4844 1120.5625,247.7031 1120.6563,248.1094 C1120.7188,248.5156 1120.75,248.6406 1120.8906,248.7656 C1121.0313,248.9063 1121.2656,249.0156 1121.4844,249.0156 C1121.75,249.0156 1122.0156,248.875 1122.1875,248.6563 C1122.2969,248.5 1122.3281,248.3125 1122.3281,247.8906 L1122.3281,246.4688 C1122.3281,246.0313 1122.3125,245.9063 1122.2188,245.75 C1122.0625,245.4844 1121.7813,245.3438 1121.4844,245.3438 C1121.1875,245.3438 1120.9844,245.4375 1120.7656,245.75 L1120.5938,245.6719 Z " fill="#000000"/><text fill="#000000" font-family="sans-serif" font-size="12" lengthAdjust="spacing" textLength="45" x="1138.75" y="254.1543">Subject</text><line style="stroke:#A80036;stroke-width:1.5;" x1="1031" x2="1259" y1="266" y2="266"/><ellipse cx="1041" cy="277" rx="3" ry="3" style="stroke:#038048;stroke-width:1.0;fill:none;"/><text fill="#000000" font-family="sans-serif" font-size="11" lengthAdjust="spacing" textLength="34" x="1050" y="280.2104">int* id</text><ellipse cx="1041" cy="289.8047" rx="3" ry="3" style="stroke:#038048;stroke-width:1.0;fill:none;"/><text fill="#000000" font-family="sans-serif" font-size="11" lengthAdjust="spacing" textLength="76" x="1050" y="293.0151">String* name</text><ellipse cx="1041" cy="302.6094" rx="3" ry="3" style="stroke:#038048;stroke-width:1.0;fill:none;"/><text fill="#000000" font-family="sans-serif" font-size="11" lengthAdjust="spacing" textLength="87" x="1050" y="305.8198">int* professorId</text><rect fill="none" height="6" style="stroke:#C82930;stroke-width:1.0;" width="6" x="1038" y="312.4141"/><text fill="#000000" font-family="sans-serif" font-size="11" lengthAdjust="spacing" text-decoration="underline" textLength="102" x="1050" y="318.6245">String* _tablePath</text><ellipse cx="1041" cy="328.2188" rx="3" ry="3" style="stroke:#038048;stroke-width:1.0;fill:none;"/><text fill="#000000" font-family="sans-serif" font-size="11" lengthAdjust="spacing" text-decoration="underline" textLength="129" x="1050" y="331.4292">int* idProfesorSiempre</text><line style="stroke:#A80036;stroke-width:1.5;" x1="1031" x2="1259" y1="338.0234" y2="338.0234"/><ellipse cx="1041" cy="349.0234" fill="#84BE84" rx="3" ry="3" style="stroke:#038048;stroke-width:1.0;"/><text fill="#000000" font-family="sans-serif" font-size="11" lengthAdjust="spacing" textLength="187" x="1050" y="352.2339">Map&lt;String*, dynamic&gt;* toJson()</text><ellipse cx="1041" cy="361.8281" fill="#84BE84" rx="3" ry="3" style="stroke:#038048;stroke-width:1.0;"/><text fill="#000000" font-family="sans-serif" font-size="11" lengthAdjust="spacing" text-decoration="underline" textLength="183" x="1050" y="365.0386">Future&lt;Subject*&gt;* getSubject()</text><ellipse cx="1041" cy="374.6328" fill="#84BE84" rx="3" ry="3" style="stroke:#038048;stroke-width:1.0;"/><text fill="#000000" font-family="sans-serif" font-size="11" lengthAdjust="spacing" text-decoration="underline" textLength="201" x="1050" y="377.8433">Future&lt;Subject*&gt;* createSubject()</text><ellipse cx="1041" cy="387.4375" fill="#84BE84" rx="3" ry="3" style="stroke:#038048;stroke-width:1.0;"/><text fill="#000000" font-family="sans-serif" font-size="11" lengthAdjust="spacing" text-decoration="underline" textLength="177" x="1050" y="390.6479">Future&lt;void&gt;* deleteSubject()</text><ellipse cx="1041" cy="400.2422" fill="#84BE84" rx="3" ry="3" style="stroke:#038048;stroke-width:1.0;"/><text fill="#000000" font-family="sans-serif" font-size="11" lengthAdjust="spacing" text-decoration="underline" textLength="204" x="1050" y="403.4526">Future&lt;Subject*&gt;* updateSubject()</text><!--MD5=[2030984b5851704120a39cef9b6cdedc]
class academic_me::models::subjects.dart::Subjects--><rect codeLine="101" fill="#FEFECE" filter="url(#fk7ma43lwimh6)" height="73.6094" id="academic_me::models::subjects.dart::Subjects" style="stroke:#A80036;stroke-width:1.5;" width="221" x="1034.5" y="53.5"/><ellipse cx="1114.75" cy="69.5" fill="#ADD1B2" rx="11" ry="11" style="stroke:#A80036;stroke-width:1.0;"/><path d="M1117.0938,65.1719 C1116.1563,64.7344 1115.5625,64.5938 1114.6875,64.5938 C1112.0625,64.5938 1110.0625,66.6719 1110.0625,69.3906 L1110.0625,70.5156 C1110.0625,73.0938 1112.1719,74.9844 1115.0625,74.9844 C1116.2813,74.9844 1117.4375,74.6875 1118.1875,74.1406 C1118.7656,73.7344 1119.0938,73.2813 1119.0938,72.8906 C1119.0938,72.4375 1118.7031,72.0469 1118.2344,72.0469 C1118.0156,72.0469 1117.8125,72.125 1117.625,72.3125 C1117.1719,72.7969 1117.1719,72.7969 1116.9844,72.8906 C1116.5625,73.1563 1115.875,73.2813 1115.1094,73.2813 C1113.0625,73.2813 1111.7656,72.1875 1111.7656,70.4844 L1111.7656,69.3906 C1111.7656,67.6094 1113.0156,66.2969 1114.75,66.2969 C1115.3281,66.2969 1115.9375,66.4531 1116.4063,66.7031 C1116.8906,66.9844 1117.0625,67.2031 1117.1563,67.6094 C1117.2188,68.0156 1117.25,68.1406 1117.3906,68.2656 C1117.5313,68.4063 1117.7656,68.5156 1117.9844,68.5156 C1118.25,68.5156 1118.5156,68.375 1118.6875,68.1563 C1118.7969,68 1118.8281,67.8125 1118.8281,67.3906 L1118.8281,65.9688 C1118.8281,65.5313 1118.8125,65.4063 1118.7188,65.25 C1118.5625,64.9844 1118.2813,64.8438 1117.9844,64.8438 C1117.6875,64.8438 1117.4844,64.9375 1117.2656,65.25 L1117.0938,65.1719 Z " fill="#000000"/><text fill="#000000" font-family="sans-serif" font-size="12" lengthAdjust="spacing" textLength="52" x="1135.25" y="73.6543">Subjects</text><line style="stroke:#A80036;stroke-width:1.5;" x1="1035.5" x2="1254.5" y1="85.5" y2="85.5"/><ellipse cx="1045.5" cy="96.5" rx="3" ry="3" style="stroke:#038048;stroke-width:1.0;fill:none;"/><text fill="#000000" font-family="sans-serif" font-size="11" lengthAdjust="spacing" textLength="143" x="1054.5" y="99.7104">List&lt;Subject*&gt;* subjects</text><line style="stroke:#A80036;stroke-width:1.5;" x1="1035.5" x2="1254.5" y1="106.3047" y2="106.3047"/><ellipse cx="1045.5" cy="117.3047" fill="#84BE84" rx="3" ry="3" style="stroke:#038048;stroke-width:1.0;"/><text fill="#000000" font-family="sans-serif" font-size="11" lengthAdjust="spacing" text-decoration="underline" textLength="195" x="1054.5" y="120.5151">Future&lt;Subjects*&gt;* getSubjects()</text><!--MD5=[d84cb16d6f059c77b121a3bd069a8fd8]
reverse link academic_me::models::exams.dart::Exams to academic_me::models::exam.dart::Exam--><path codeLine="29" d="M214.663,371.426 C227.346,408.288 245.469,460.958 262.515,510.496 " fill="none" id="academic_me::models::exams.dart::Exams-backto-academic_me::models::exam.dart::Exam" style="stroke:#A80036;stroke-width:1.0;"/><polygon fill="#FFFFFF" points="210.414,359.078,208.5839,366.053,214.3185,370.425,216.1486,363.45,210.414,359.078" style="stroke:#A80036;stroke-width:1.0;"/><!--MD5=[1aa52ca0910753504ab4a4734d87230b]
link academic_me::models::mark.dart::Mark to academic_me::models::exam.dart::Exam--><path codeLine="47" d="M425.919,429.13 C414.124,451.451 401.472,475.395 389.016,498.966 " fill="none" id="academic_me::models::mark.dart::Mark-to-academic_me::models::exam.dart::Exam" style="stroke:#A80036;stroke-width:1.0;"/><polygon fill="#FFFFFF" points="382.922,510.499,389.2619,507.0631,388.5288,499.8894,382.1888,503.3253,382.922,510.499" style="stroke:#A80036;stroke-width:1.0;"/><!--MD5=[26035a308d5e8bda87d99fe0e12a0ba6]
link academic_me::models::mark.dart::Mark to academic_me::models::student.dart::Student--><path codeLine="48" d="M560.253,429.13 C575.359,449.618 591.473,471.472 607.457,493.151 " fill="none" id="academic_me::models::mark.dart::Mark-to-academic_me::models::student.dart::Student" style="stroke:#A80036;stroke-width:1.0;"/><polygon fill="#FFFFFF" points="615.289,503.773,614.9472,496.57,608.1669,494.1151,608.5086,501.3181,615.289,503.773" style="stroke:#A80036;stroke-width:1.0;"/><!--MD5=[000011b24639c604e9043b091bbc7458]
reverse link academic_me::models::marks.dart::Marks to academic_me::models::mark.dart::Mark--><path codeLine="57" d="M482,153.207 C482,172.207 482,193.695 482,214.795 " fill="none" id="academic_me::models::marks.dart::Marks-backto-academic_me::models::mark.dart::Mark" style="stroke:#A80036;stroke-width:1.0;"/><polygon fill="#FFFFFF" points="482,140.171,478,146.171,482,152.171,486,146.171,482,140.171" style="stroke:#A80036;stroke-width:1.0;"/><!--MD5=[d470537a132c496210e2d6cffd1c7c70]
reverse link academic_me::models::students.dart::Students to academic_me::models::student.dart::Student--><path codeLine="86" d="M769.52,372.29 C763.475,407.426 755.014,456.604 746.904,503.743 " fill="none" id="academic_me::models::students.dart::Students-backto-academic_me::models::student.dart::Student" style="stroke:#A80036;stroke-width:1.0;"/><polygon fill="#FFFFFF" points="771.793,359.078,766.8335,364.3129,769.7582,370.9042,774.7177,365.6694,771.793,359.078" style="stroke:#A80036;stroke-width:1.0;"/><!--MD5=[f43caadcc654a1794e44d353fc3cacf8]
reverse link academic_me::models::subjects.dart::Subjects to academic_me::models::subject.dart::Subject--><path codeLine="106" d="M1145,140.653 C1145,167.72 1145,202.119 1145,233.601 " fill="none" id="academic_me::models::subjects.dart::Subjects-backto-academic_me::models::subject.dart::Subject" style="stroke:#A80036;stroke-width:1.0;"/><polygon fill="#FFFFFF" points="1145,127.612,1141,133.612,1145,139.612,1149,133.612,1145,127.612" style="stroke:#A80036;stroke-width:1.0;"/><!--MD5=[cc6df553d90f26c2901212e3ceb378e5]
@startuml
set namespaceSeparator ::

class "academic_me::models::exam.dart::Exam" {
  +int* id
  +String* name
  +DateTime* date
  +int* subjectId
  -Iterable<Mark*>* _marks
  {static} -String* _tablePath
  {static} +int* idProfesorSiempre
  +Future<Iterable<Mark*>*>* marks
  +Future<double*>* mean
  +Future<double*>* minimum
  +Future<double*>* maximum
  -Future<Iterable<Mark*>*>* _getMarksFromAPI()
  +void updateMarks()
  +Map<String*, dynamic>* toJson()
  {static} +Future<Exam*>* getExam()
  {static} +Future<Exam*>* createExam()
  {static} +Future<void>* deleteExam()
  {static} +Future<Exam*>* updateExam()
}

class "academic_me::models::exams.dart::Exams" {
  +List<Exam*>* exams
  {static} +Future<Exams*>* getExams()
}

"academic_me::models::exams.dart::Exams" o- - "academic_me::models::exam.dart::Exam"

class "academic_me::models::mark.dart::Mark" {
  +int* id
  +int* studentId
  +int* examId
  +double* grade
  +String* urlPhoto
  +Exam* exam
  +Student* student
  {static} -String* _tablePath
  {static} +int* idProfesorSiempre
  {static} +Future<Mark*>* getMark()
  {static} +Future<Mark*>* createMark()
  {static} +Future<void>* deleteMark()
  {static} +Future<Mark*>* updateMark()
}

"academic_me::models::mark.dart::Mark" - -o "academic_me::models::exam.dart::Exam"
"academic_me::models::mark.dart::Mark" - -o "academic_me::models::student.dart::Student"

class "academic_me::models::marks.dart::Marks" {
  +List<Mark*>* marks
  {static} +Future<Marks*>* getMarks()
  {static} +Future<Iterable<Mark*>*>* getMarksStudent()
  {static} +Future<Iterable<Mark*>*>* getMarksExam()
}

"academic_me::models::marks.dart::Marks" o- - "academic_me::models::mark.dart::Mark"

class "academic_me::models::student.dart::Student" {
  +int* id
  +String* name
  +String* surname
  +String* phone
  +String* email
  +String* address
  -Iterable<Mark*>* _marks
  {static} -String* _tablePath
  +Future<Iterable<Mark*>*>* marks
  +String* completeName
  +Future<double*>* mean
  +Future<double*>* minimum
  +Future<double*>* maximum
  -Future<Iterable<Mark*>*>* _getMarksFromAPI()
  +void updateMarks()
  {static} +Future<Student*>* getStudent()
  {static} +Future<Student*>* createStudent()
  {static} +Future<void>* deleteStudent()
  {static} +Future<Student*>* updateStudent()
}

class "academic_me::models::students.dart::Students" {
  +List<Student*>* students
  {static} +Future<Students*>* getStudents()
}

"academic_me::models::students.dart::Students" o- - "academic_me::models::student.dart::Student"

class "academic_me::models::subject.dart::Subject" {
  +int* id
  +String* name
  +int* professorId
  {static} -String* _tablePath
  {static} +int* idProfesorSiempre
  +Map<String*, dynamic>* toJson()
  {static} +Future<Subject*>* getSubject()
  {static} +Future<Subject*>* createSubject()
  {static} +Future<void>* deleteSubject()
  {static} +Future<Subject*>* updateSubject()
}

class "academic_me::models::subjects.dart::Subjects" {
  +List<Subject*>* subjects
  {static} +Future<Subjects*>* getSubjects()
}

"academic_me::models::subjects.dart::Subjects" o- - "academic_me::models::subject.dart::Subject"
@enduml

PlantUML version 1.2021.7(Sun May 23 12:40:07 UTC 2021)
(GPL source distribution)
Java Runtime: Java(TM) SE Runtime Environment
JVM: Java HotSpot(TM) 64-Bit Server VM
Default Encoding: UTF-8
Language: en
Country: US
--></g></svg>